<svg height="1998" width="720" xmlns="http://www.w3.org/2000/svg">
<rect height="1998" fill="#555" width="720"></rect>
<text fill="#7f7" font-family="Courier New" font-size="12" xml:space="preserve">
<tspan x="10" y="26"></tspan>
<tspan x="10" y="42">&gt; npmdoc-xtend@0.0.1 test /home/travis/build/npmdoc/node-npmdoc-xtend</tspan>
<tspan x="10" y="58">&gt; (set -e; export PORT=$(utility2 shServerPortRandom); utility2 test test.js)</tspan>
<tspan x="10" y="74"></tspan>
<tspan x="10" y="90"></tspan>
<tspan x="10" y="106">[MODE_BUILD=npmTest] - 2017-04-03T11:22:04Z - npm-testing /home/travis/build/npmdoc/node-npmdoc-\</tspan>
<tspan x="10" y="122">xtend</tspan>
<tspan x="10" y="138"></tspan>
<tspan x="10" y="154"></tspan>
<tspan x="10" y="170">covering $ /home/travis/.nvm/versions/node/v6.10.1/bin/node /home/travis/build/npmdoc/node-npmdo\</tspan>
<tspan x="10" y="186">c-xtend/test.js</tspan>
<tspan x="10" y="202">merging file:///home/travis/build/npmdoc/node-npmdoc-xtend/tmp/build/test-report.json to test-re\</tspan>
<tspan x="10" y="218">port</tspan>
<tspan x="10" y="234">&gt; server listening on http-port 47246</tspan>
<tspan x="10" y="250">created apidoc file:///home/travis/build/npmdoc/node-npmdoc-xtend/tmp/build/apidoc.html</tspan>
<tspan x="10" y="266"></tspan>
<tspan x="10" y="282"></tspan>
<tspan x="10" y="298">browserTest - created electron entry-page /home/travis/build/npmdoc/node-npmdoc-xtend/tmp/electr\</tspan>
<tspan x="10" y="314">on.15b338ced500.cc73cbe3b8d3f.html</tspan>
<tspan x="10" y="330"></tspan>
<tspan x="10" y="346">[node test-case 1 of 6 passed] - testCase_buildLib_default</tspan>
<tspan x="10" y="362">[node test-case 2 of 6 passed] - testCase_buildReadme_default</tspan>
<tspan x="10" y="378">[node test-case 3 of 6 passed] - testCase_buildTest_default</tspan>
<tspan x="10" y="394"></tspan>
<tspan x="10" y="410">browserTest - created electron entry-page /home/travis/build/npmdoc/node-npmdoc-xtend/tmp/electr\</tspan>
<tspan x="10" y="426">on.15b338ced7a0.4ab0f717895b8.html</tspan>
<tspan x="10" y="442"></tspan>
<tspan x="10" y="458">Xlib:  extension "RANDR" missing on display ":99.0".</tspan>
<tspan x="10" y="474">Xlib:  extension "RANDR" missing on display ":99.0".</tspan>
<tspan x="10" y="490">&gt; server listening on http-port 41530</tspan>
<tspan x="10" y="506">merging file:///home/travis/build/npmdoc/node-npmdoc-xtend/tmp/build/test-report.json to test-re\</tspan>
<tspan x="10" y="522">port</tspan>
<tspan x="10" y="538">Xlib:  extension "RANDR" missing on display ":99.0".</tspan>
<tspan x="10" y="554">[5944:0403/112206:WARNING:audio_manager.cc(314)] Multiple instances of AudioManager detected</tspan>
<tspan x="10" y="570">[5944:0403/112206:WARNING:audio_manager.cc(275)] Multiple instances of AudioManager detected</tspan>
<tspan x="10" y="586">[5981:0403/112206:ERROR:sandbox_linux.cc(343)] InitializeSandbox() called with multiple threads \</tspan>
<tspan x="10" y="602">in process gpu-process. </tspan>
<tspan x="10" y="618">merging file:///home/travis/build/npmdoc/node-npmdoc-xtend/tmp/build/test-report.json to test-re\</tspan>
<tspan x="10" y="634">port</tspan>
<tspan x="10" y="650">Xlib:  extension "RANDR" missing on display ":99.0".</tspan>
<tspan x="10" y="666">[5943:0403/112206:WARNING:audio_manager.cc(314)] Multiple instances of AudioManager detected</tspan>
<tspan x="10" y="682">[5943:0403/112206:WARNING:audio_manager.cc(275)] Multiple instances of AudioManager detected</tspan>
<tspan x="10" y="698">[6010:0403/112206:ERROR:sandbox_linux.cc(343)] InitializeSandbox() called with multiple threads \</tspan>
<tspan x="10" y="714">in process gpu-process. </tspan>
<tspan x="10" y="730">[5943:0403/112206:ERROR:browser_gpu_channel_host_factory.cc(131)] Failed to create channel.</tspan>
<tspan x="10" y="746"></tspan>
<tspan x="10" y="762">browserTest - opened url http://127.0.0.1:47246?modeTest=1</tspan>
<tspan x="10" y="778"></tspan>
<tspan x="10" y="794"></tspan>
<tspan x="10" y="810">browserTest - opened url /home/travis/build/npmdoc/node-npmdoc-xtend/tmp/build/apidoc.html</tspan>
<tspan x="10" y="826"></tspan>
<tspan x="10" y="842">[5944:0403/112207:INFO:CONSOLE(245)] "----------|-----------|-----------|-----------|-----------\</tspan>
<tspan x="10" y="858">|</tspan>
<tspan x="10" y="874">File      |   % Stmts |% Branches |   % Funcs |   % Lines |</tspan>
<tspan x="10" y="890">----------|-----------|-----------|-----------|-----------|</tspan>
<tspan x="10" y="906">----------|-----------|-----------|-----------|-----------|</tspan>
<tspan x="10" y="922">All files |       100 |       100 |       100 |       100 |</tspan>
<tspan x="10" y="938">----------|-----------|-----------|-----------|-----------|</tspan>
<tspan x="10" y="954">", source: file:///home/travis/build/npmdoc/node-npmdoc-xtend/tmp/electron.15b338ced7a0.4ab0f717\</tspan>
<tspan x="10" y="970">895b8.html (245)</tspan>
<tspan x="10" y="986">[5944:0403/112207:INFO:CONSOLE(245)] "created coverage file:///tmp/build/coverage.html/index.htm\</tspan>
<tspan x="10" y="1002">l", source: file:///home/travis/build/npmdoc/node-npmdoc-xtend/tmp/electron.15b338ced7a0.4ab0f71\</tspan>
<tspan x="10" y="1018">7895b8.html (245)</tspan>
<tspan x="10" y="1034">[node test-case 4 of 6 passed] - testCase_buildApp_default</tspan>
<tspan x="10" y="1050"></tspan>
<tspan x="10" y="1066">browserTest - created screenCapture file:///home/travis/build/npmdoc/node-npmdoc-xtend/tmp/build\</tspan>
<tspan x="10" y="1082">/screenCapture.npmTest.browser..png</tspan>
<tspan x="10" y="1098"></tspan>
<tspan x="10" y="1114">browserTest - created screenCapture file:///home/travis/build/npmdoc/node-npmdoc-xtend/tmp/build\</tspan>
<tspan x="10" y="1130">/screenCapture.npmTest.browser..html</tspan>
<tspan x="10" y="1146"></tspan>
<tspan x="10" y="1162">browserTest - exit-code 0 - http://127.0.0.1:47246?modeTest=1</tspan>
<tspan x="10" y="1178"></tspan>
<tspan x="10" y="1194"></tspan>
<tspan x="10" y="1210">browserTest - merged coverage from /home/travis/build/npmdoc/node-npmdoc-xtend/tmp/coverage.npmT\</tspan>
<tspan x="10" y="1226">est.browser.%2F.json</tspan>
<tspan x="10" y="1242"></tspan>
<tspan x="10" y="1258"></tspan>
<tspan x="10" y="1274">browserTest - merging test-report from /home/travis/build/npmdoc/node-npmdoc-xtend/tmp/test-repo\</tspan>
<tspan x="10" y="1290">rt.npmTest.browser.%2F.json</tspan>
<tspan x="10" y="1306"></tspan>
<tspan x="10" y="1322">[node test-case 5 of 6 passed] - testCase_webpage_default</tspan>
<tspan x="10" y="1338"></tspan>
<tspan x="10" y="1354">browserTest - created screenCapture file:///home/travis/build/npmdoc/node-npmdoc-xtend/tmp/build\</tspan>
<tspan x="10" y="1370">/screenCapture.npmTest.browser._2Fhome_2Ftravis_2Fbuild_2Fnpmdoc_2Fnode-npmdoc-xtend_2Ftmp_2Fbui\</tspan>
<tspan x="10" y="1386">ld_2Fapidoc.html.png</tspan>
<tspan x="10" y="1402"></tspan>
<tspan x="10" y="1418">browserTest - created screenCapture file:///home/travis/build/npmdoc/node-npmdoc-xtend/tmp/build\</tspan>
<tspan x="10" y="1434">/screenCapture.npmTest.browser._2Fhome_2Ftravis_2Fbuild_2Fnpmdoc_2Fnode-npmdoc-xtend_2Ftmp_2Fbui\</tspan>
<tspan x="10" y="1450">ld_2Fapidoc.html.html</tspan>
<tspan x="10" y="1466"></tspan>
<tspan x="10" y="1482">browserTest - exit-code 0 - /home/travis/build/npmdoc/node-npmdoc-xtend/tmp/build/apidoc.html</tspan>
<tspan x="10" y="1498"></tspan>
<tspan x="10" y="1514">[node test-case 6 of 6 passed] - testCase_buildApidoc_default</tspan>
<tspan x="10" y="1530">--------------------------|-----------|-----------|-----------|-----------|</tspan>
<tspan x="10" y="1546">File                      |   % Stmts |% Branches |   % Funcs |   % Lines |</tspan>
<tspan x="10" y="1562">--------------------------|-----------|-----------|-----------|-----------|</tspan>
<tspan x="10" y="1578">   node-npmdoc-xtend/     |       100 |       100 |       100 |       100 |</tspan>
<tspan x="10" y="1594">      example.js          |       100 |       100 |       100 |       100 |</tspan>
<tspan x="10" y="1610">      lib.npmdoc_xtend.js |       100 |       100 |       100 |       100 |</tspan>
<tspan x="10" y="1626">      test.js             |       100 |       100 |       100 |       100 |</tspan>
<tspan x="10" y="1642">--------------------------|-----------|-----------|-----------|-----------|</tspan>
<tspan x="10" y="1658">All files                 |       100 |       100 |       100 |       100 |</tspan>
<tspan x="10" y="1674">--------------------------|-----------|-----------|-----------|-----------|</tspan>
<tspan x="10" y="1690"></tspan>
<tspan x="10" y="1706">created coverage file:///home/travis/build/npmdoc/node-npmdoc-xtend/tmp/build/coverage.html/inde\</tspan>
<tspan x="10" y="1722">x.html</tspan>
<tspan x="10" y="1738">merging file:///home/travis/build/npmdoc/node-npmdoc-xtend/tmp/build/test-report.json to test-re\</tspan>
<tspan x="10" y="1754">port</tspan>
<tspan x="10" y="1770"></tspan>
<tspan x="10" y="1786">-------------------------------------------------------</tspan>
<tspan x="10" y="1802">| test-report - buildNpmdoc - node - linux v6.10.1 - 2017-04-03T11:21:31.252Z</tspan>
<tspan x="10" y="1818">|   44072 ms            0 failed        6 passed      |</tspan>
<tspan x="10" y="1834">-------------------------------------------------------</tspan>
<tspan x="10" y="1850"></tspan>
<tspan x="10" y="1866">created test-report file:///home/travis/build/npmdoc/node-npmdoc-xtend/tmp/build/test-report.htm\</tspan>
<tspan x="10" y="1882">l</tspan>
<tspan x="10" y="1898"></tspan>
<tspan x="10" y="1914"></tspan>
<tspan x="10" y="1930">npmTest - 0 failed tests</tspan>
<tspan x="10" y="1946"></tspan>
<tspan x="10" y="1962"></tspan>
<tspan x="10" y="1978">[MODE_BUILD=npmTest] - 2017-04-03T11:22:18Z - EXIT_CODE - 0</tspan>
</text>
</svg>
